<svg id="Laag_1" data-name="Laag 1" xmlns="http://www.w3.org/2000/svg" viewBox="0 0 199.67 65.72"><defs><style>.cls-1{fill:#144b7c;}</style></defs><title>SRS logo 200px RGB</title><path class="cls-1" d="M3.7,66.79A4,4,0,0,1,.53,65.57l.68-.68a3.18,3.18,0,0,0,2.52,1c1.35,0,2.18-.64,2.18-1.72A1.49,1.49,0,0,0,5.47,63a2,2,0,0,0-1.21-.44l-1.08-.17a3.36,3.36,0,0,1-1.7-.7A2.19,2.19,0,0,1,.77,60c0-1.57,1.13-2.61,3-2.61a3.71,3.71,0,0,1,2.75,1L5.86,59a2.91,2.91,0,0,0-2.16-.79A1.71,1.71,0,0,0,1.75,60,1.33,1.33,0,0,0,2.17,61a2.66,2.66,0,0,0,1.25.51l1,.16a3,3,0,0,1,1.69.65,2.32,2.32,0,0,1,.78,1.83C6.9,65.79,5.62,66.79,3.7,66.79Z" transform="translate(-0.33 -1.06)"/><path class="cls-1" d="M13.58,62.9H11.13v3.81h-1V57.46h3.44a2.73,2.73,0,1,1,0,5.45Zm-.09-4.56H11.13V62h2.37a1.84,1.84,0,1,0,0-3.68Z" transform="translate(-0.33 -1.06)"/><path class="cls-1" d="M19.51,66.71V57.46h5.74v.88H20.5V61.6h4.05v.88H20.5v3.34h4.76v.88Z" transform="translate(-0.33 -1.06)"/><path class="cls-1" d="M31.37,66.79a3.3,3.3,0,0,1-2.36-1c-.87-.87-.87-1.78-.87-3.74s0-2.87.87-3.74a3.3,3.3,0,0,1,2.36-1,3.12,3.12,0,0,1,3.21,2.75h-1a2.19,2.19,0,0,0-2.2-1.87,2.23,2.23,0,0,0-1.6.65c-.58.6-.65,1.23-.65,3.17s.06,2.57.65,3.17A2.27,2.27,0,0,0,33.59,64h1A3.12,3.12,0,0,1,31.37,66.79Z" transform="translate(-0.33 -1.06)"/><path class="cls-1" d="M37.94,66.71V57.46h1v9.25Z" transform="translate(-0.33 -1.06)"/><path class="cls-1" d="M48.18,66.71l-.74-2.09h-4l-.74,2.09H41.6L45,57.46h.83l3.39,9.25Zm-2.74-7.84L43.7,63.76h3.46Z" transform="translate(-0.33 -1.06)"/><path class="cls-1" d="M51.91,66.71V57.46h1v8.37h4.73v.88Z" transform="translate(-0.33 -1.06)"/><path class="cls-1" d="M60.53,66.71V57.46h1v9.25Z" transform="translate(-0.33 -1.06)"/><path class="cls-1" d="M67.75,66.79a4,4,0,0,1-3.17-1.22l.68-.68a3.18,3.18,0,0,0,2.52,1c1.35,0,2.18-.64,2.18-1.72A1.49,1.49,0,0,0,69.52,63a2,2,0,0,0-1.21-.44l-1.08-.17a3.36,3.36,0,0,1-1.7-.7,2.19,2.19,0,0,1-.7-1.73c0-1.57,1.13-2.61,3-2.61a3.71,3.71,0,0,1,2.75,1l-.64.64a2.91,2.91,0,0,0-2.16-.79A1.71,1.71,0,0,0,65.81,60,1.33,1.33,0,0,0,66.22,61a2.66,2.66,0,0,0,1.25.51l1,.16a3,3,0,0,1,1.69.65A2.32,2.32,0,0,1,71,64.16C71,65.79,69.68,66.79,67.75,66.79Z" transform="translate(-0.33 -1.06)"/><path class="cls-1" d="M76.91,58.34v8.37h-1V58.34H73.25v-.88h6.34v.88Z" transform="translate(-0.33 -1.06)"/><path class="cls-1" d="M92.23,66.71,90.13,62.6H87.9v4.11h-1V57.46h3.55A2.5,2.5,0,0,1,93.21,60a2.4,2.4,0,0,1-2,2.48l2.2,4.2Zm-1.86-8.37H87.9v3.39h2.47a1.7,1.7,0,1,0,0-3.39Z" transform="translate(-0.33 -1.06)"/><path class="cls-1" d="M96.62,66.71V57.46h5.74v.88H97.61V61.6h4.05v.88H97.61v3.34h4.76v.88Z" transform="translate(-0.33 -1.06)"/><path class="cls-1" d="M108.31,58.34v8.37h-1V58.34h-2.68v-.88H111v.88Z" transform="translate(-0.33 -1.06)"/><path class="cls-1" d="M118.51,66.71l-.74-2.09h-4L113,66.71h-1.05l3.4-9.25h.83l3.39,9.25Zm-2.74-7.84L114,63.76h3.46Z" transform="translate(-0.33 -1.06)"/><path class="cls-1" d="M122.24,66.71V57.46h1v9.25Z" transform="translate(-0.33 -1.06)"/><path class="cls-1" d="M127.08,66.71V57.46h1v8.37h4.73v.88Z" transform="translate(-0.33 -1.06)"/><path class="cls-1" d="M142.5,66.79a4,4,0,0,1-3.17-1.22l.68-.68a3.18,3.18,0,0,0,2.52,1c1.35,0,2.18-.64,2.18-1.72a1.49,1.49,0,0,0-.44-1.16,2,2,0,0,0-1.21-.44L142,62.42a3.36,3.36,0,0,1-1.7-.7,2.19,2.19,0,0,1-.7-1.73c0-1.57,1.13-2.61,3-2.61a3.71,3.71,0,0,1,2.75,1l-.64.64a2.91,2.91,0,0,0-2.16-.79A1.71,1.71,0,0,0,140.55,60,1.33,1.33,0,0,0,141,61a2.66,2.66,0,0,0,1.25.51l1,.16a3,3,0,0,1,1.69.65,2.32,2.32,0,0,1,.78,1.83C145.7,65.79,144.43,66.79,142.5,66.79Z" transform="translate(-0.33 -1.06)"/><path class="cls-1" d="M151.19,62.89v3.82h-1V62.89l-2.75-5.43h1.07l2.18,4.43,2.16-4.43h1.07Z" transform="translate(-0.33 -1.06)"/><path class="cls-1" d="M158.92,66.79a4,4,0,0,1-3.17-1.22l.68-.68a3.18,3.18,0,0,0,2.52,1c1.35,0,2.18-.64,2.18-1.72a1.49,1.49,0,0,0-.44-1.16,2,2,0,0,0-1.21-.44l-1.08-.17a3.36,3.36,0,0,1-1.7-.7A2.19,2.19,0,0,1,156,60c0-1.57,1.13-2.61,3-2.61a3.71,3.71,0,0,1,2.75,1l-.64.64a2.91,2.91,0,0,0-2.16-.79A1.71,1.71,0,0,0,157,60a1.33,1.33,0,0,0,.42,1.07,2.66,2.66,0,0,0,1.25.51l1,.16a3,3,0,0,1,1.69.65,2.32,2.32,0,0,1,.78,1.83C162.12,65.79,160.85,66.79,158.92,66.79Z" transform="translate(-0.33 -1.06)"/><path class="cls-1" d="M168.08,58.34v8.37h-1V58.34h-2.68v-.88h6.34v.88Z" transform="translate(-0.33 -1.06)"/><path class="cls-1" d="M173.67,66.71V57.46h5.74v.88h-4.76V61.6h4.05v.88h-4.05v3.34h4.76v.88Z" transform="translate(-0.33 -1.06)"/><path class="cls-1" d="M189.58,66.71v-7L187,65.25h-.84l-2.57-5.57v7h-1V57.46h1l3,6.56,2.94-6.56h1v9.25Z" transform="translate(-0.33 -1.06)"/><path class="cls-1" d="M196.8,66.79a4,4,0,0,1-3.17-1.22l.68-.68a3.18,3.18,0,0,0,2.52,1c1.35,0,2.18-.64,2.18-1.72a1.49,1.49,0,0,0-.44-1.16,2,2,0,0,0-1.21-.44l-1.08-.17a3.36,3.36,0,0,1-1.7-.7,2.19,2.19,0,0,1-.7-1.73c0-1.57,1.13-2.61,3-2.61a3.71,3.71,0,0,1,2.75,1L199,59a2.91,2.91,0,0,0-2.16-.79A1.71,1.71,0,0,0,194.85,60a1.33,1.33,0,0,0,.42,1.07,2.66,2.66,0,0,0,1.25.51l1,.16a3,3,0,0,1,1.69.65,2.32,2.32,0,0,1,.78,1.83C200,65.79,198.73,66.79,196.8,66.79Z" transform="translate(-0.33 -1.06)"/><path class="cls-1" d="M2,43.48h47.1a4.54,4.54,0,0,0,4.55-4.55V34.38a4.54,4.54,0,0,0-4.55-4.55H12.44A12.11,12.11,0,0,1,.33,17.72V13.17A12.07,12.07,0,0,1,12.44,1.06h47.1V8.55H12.44a4.6,4.6,0,0,0-4.55,4.62v4.55a4.54,4.54,0,0,0,4.55,4.55H49.11a12.1,12.1,0,0,1,12,12.11v4.55A12.05,12.05,0,0,1,49.11,51H2Z" transform="translate(-0.33 -1.06)"/><path class="cls-1" d="M122.87,34.38a4.54,4.54,0,0,0-4.55-4.55H80.39V22.27h37.93a4.54,4.54,0,0,0,4.55-4.55V13.17a4.6,4.6,0,0,0-4.55-4.62H77.1V51H69.54v-50h48.78a12.05,12.05,0,0,1,12,12.11v4.55A12.11,12.11,0,0,1,127.07,26a12.12,12.12,0,0,1,3.29,8.33V51h-7.49Z" transform="translate(-0.33 -1.06)"/><path class="cls-1" d="M140.43,43.48h47.1a4.54,4.54,0,0,0,4.55-4.55V34.38a4.54,4.54,0,0,0-4.55-4.55H150.86a12.11,12.11,0,0,1-12.11-12.11V13.17A12.07,12.07,0,0,1,150.86,1.06H198V8.55h-47.1a4.6,4.6,0,0,0-4.55,4.62v4.55a4.54,4.54,0,0,0,4.55,4.55h36.67a12.1,12.1,0,0,1,12,12.11v4.55a12.05,12.05,0,0,1-12,12.11h-47.1Z" transform="translate(-0.33 -1.06)"/></svg>